{
	"asset":{
		"generator":"Khronos glTF Blender I/O v4.1.62",
		"version":"2.0"
	},
	"extensionsUsed":[
		"KHR_materials_specular"
	],
	"scene":0,
	"scenes":[
		{
			"name":"Scene",
			"nodes":[
				0
			]
		}
	],
	"nodes":[
		{
			"mesh":0,
			"name":"Cylinder001"
		}
	],
	"materials":[
		{
			"alphaMode":"BLEND",
			"doubleSided":true,
			"extensions":{
				"KHR_materials_specular":{
					"specularFactor":0
				}
			},
			"name":"02 - Default",
			"pbrMetallicRoughness":{
				"baseColorTexture":{
					"index":0
				},
				"roughnessFactor":0.858578622341156
			}
		}
	],
	"meshes":[
		{
			"name":"Mesh",
			"primitives":[
				{
					"attributes":{
						"POSITION":0,
						"NORMAL":1,
						"TEXCOORD_0":2
					},
					"indices":3,
					"material":0
				}
			]
		}
	],
	"textures":[
		{
			"sampler":0,
			"source":0
		}
	],
	"images":[
		{
			"mimeType":"image/png",
			"name":"torre",
			"uri":"torre.png"
		}
	],
	"accessors":[
		{
			"bufferView":0,
			"componentType":5126,
			"count":11778,
			"max":[
				0.4160606563091278,
				1.9000002145767212,
				0.41676777601242065
			],
			"min":[
				-0.41709959506988525,
				0,
				-0.4159591794013977
			],
			"type":"VEC3"
		},
		{
			"bufferView":1,
			"componentType":5126,
			"count":11778,
			"type":"VEC3"
		},
		{
			"bufferView":2,
			"componentType":5126,
			"count":11778,
			"type":"VEC2"
		},
		{
			"bufferView":3,
			"componentType":5123,
			"count":66228,
			"type":"SCALAR"
		}
	],
	"bufferViews":[
		{
			"buffer":0,
			"byteLength":141336,
			"byteOffset":0,
			"target":34962
		},
		{
			"buffer":0,
			"byteLength":141336,
			"byteOffset":141336,
			"target":34962
		},
		{
			"buffer":0,
			"byteLength":94224,
			"byteOffset":282672,
			"target":34962
		},
		{
			"buffer":0,
			"byteLength":132456,
			"byteOffset":376896,
			"target":34963
		}
	],
	"samplers":[
		{
			"magFilter":9729,
			"minFilter":9987
		}
	],
	"buffers":[
		{
			"byteLength":509352,
			"uri":"torre.bin"
		}
	]
}
